<svg xmlns="http://www.w3.org/2000/svg" xmlns:svg="http://www.w3.org/2000/svg" id="svg2" width="64" height="64" version="1.1"><defs id="defs4"><marker id="TriangleOutL" orient="auto" refX="0" refY="0" style="overflow:visible"><path id="path4455" d="M 5.77,0.0 L -2.88,5.0 L -2.88,-5.0 L 5.77,0.0 z" transform="scale(0.8)" style="fill-rule:evenodd;stroke:#000;stroke-width:1pt"/></marker><marker id="Arrow1Send" orient="auto" refX="0" refY="0" style="overflow:visible"><path id="path4328" d="M 0.0,0.0 L 5.0,-5.0 L -12.5,0.0 L 5.0,5.0 L 0.0,0.0 z" transform="scale(0.2) rotate(180) translate(6,0)" style="fill-rule:evenodd;stroke:#000;stroke-width:1pt"/></marker><marker id="Arrow1Lend" orient="auto" refX="0" refY="0" style="overflow:visible"><path id="path4316" d="M 0.0,0.0 L 5.0,-5.0 L -12.5,0.0 L 5.0,5.0 L 0.0,0.0 z" transform="scale(0.8) rotate(180) translate(12.5,0)" style="fill-rule:evenodd;stroke:#000;stroke-width:1pt"/></marker><marker id="Arrow2Lend" orient="auto" refX="0" refY="0" style="overflow:visible"><path id="path4334" d="M 8.7185878,4.0337352 L -2.2072895,0.016013256 L 8.7185884,-4.0017078 C 6.9730900,-1.6296469 6.9831476,1.6157441 8.7185878,4.0337352 z" transform="scale(1.1) rotate(180) translate(1,0)" style="fill-rule:evenodd;stroke-width:.625;stroke-linejoin:round"/></marker></defs><metadata id="metadata7"/><g id="layer1" transform="translate(0,-988.36218)"><g id="g3786" transform="matrix(0.7173913,0,0,0.7173913,16.304348,291.10235)"><g id="g3776" transform="matrix(-1,0,0,1,44.454545,0)"><path style="fill:#000;fill-opacity:1;stroke:#000;stroke-width:2;stroke-linecap:butt;stroke-linejoin:round;stroke-miterlimit:4;stroke-opacity:1;stroke-dasharray:none" id="path5691" d="m 9.9999999,54.000001 37.0000001,0 0,3 11,-6 -11,-6 0,3 L 16,48 l 0,-30.999999 3,0 -6,-11.0000005 -6.0000003,11.0000005 3.0000002,0 0,37" transform="matrix(-1.3939394,0,0,1.3939394,67.181818,971.93795)"/><text style="font-size:55.757575989999999px;font-style:normal;font-weight:400;line-height:125%;letter-spacing:0;word-spacing:0;fill:#000;fill-opacity:1;stroke:none;font-family:Sans;stroke-width:2.7878788;stroke-miterlimit:4;stroke-dasharray:none" id="text5695" x="-33.199" y="1024.695" transform="scale(-1,1)" xml:space="preserve"><tspan id="tspan5697" x="-33.199" y="1024.695" style="font-style:normal;font-variant:normal;font-weight:700;font-stretch:normal;font-family:Arial;-inkscape-font-specification:Arial Bold;stroke-width:2.7878788000000001;stroke-miterlimit:4;stroke-dasharray:none">Ø</tspan></text></g></g></g></svg>