<svg xmlns="http://www.w3.org/2000/svg" xmlns:svg="http://www.w3.org/2000/svg" id="svg2" width="64" height="64" version="1.1"><metadata id="metadata7"/><g id="layer1" transform="translate(0,-988.36218)"><g id="g3786" transform="matrix(0.7173913,0,0,0.7173913,16.304348,291.10235)"><g id="g3776" transform="matrix(-1,0,0,1,44.454545,0)"><path style="fill:none;stroke:#000;stroke-width:8.15431595;stroke-linecap:butt;stroke-linejoin:miter;stroke-miterlimit:4;stroke-opacity:1;stroke-dasharray:none" id="path3749" d="m 22.370216,1050.1032 c -13.7601955,-6.1438 -21.99007282,-5.4349 -31.4708751,-15.0984 l -0.9876199,-50.94155 c 11.4551238,5.23518 19.0875774,1.8401 31.958124,-1.1939 13.510012,3.54449 25.953676,5.44727 33.459238,1.66649 l -1.487991,50.46886 c -9.006675,9.6883 -19.461976,9.4273 -31.470876,15.0985 z"/><path style="fill:#000;fill-opacity:1;stroke:none" id="path3749-7" d="m 21.772412,1042.6191 c -10.696841,-4.7758 -17.0945485,-4.2249 -24.464694,-11.737 l -1.0171352,-38.10442 c 9.4037031,1.94994 17.0826832,-0.93869 25.0928522,-2.4244 z"/></g></g></g></svg>