<svg xmlns="http://www.w3.org/2000/svg" xmlns:svg="http://www.w3.org/2000/svg" id="svg2" width="256" height="256" version="1.1"><defs id="defs4"><filter style="color-interpolation-filters:sRGB" id="filter3767"><feFlood id="feFlood3769" flood-color="#000" flood-opacity=".5" result="flood"/><feComposite id="feComposite3771" in="flood" in2="SourceGraphic" operator="in" result="composite1"/><feGaussianBlur id="feGaussianBlur3773" in="composite" result="blur" stdDeviation="2"/><feOffset id="feOffset3775" dx="10" dy="10" result="offset"/><feComposite id="feComposite3777" in="SourceGraphic" in2="offset" operator="over" result="composite2"/></filter><filter id="filter3966" color-interpolation-filters="sRGB"><feFlood id="feFlood3968" flood-color="#000" flood-opacity=".5" result="flood"/><feComposite id="feComposite3970" in="flood" in2="SourceGraphic" operator="in" result="composite1"/><feGaussianBlur id="feGaussianBlur3972" result="blur" stdDeviation="2"/><feOffset id="feOffset3974" dx="10" dy="-10" result="offset"/><feComposite id="feComposite3976" in="SourceGraphic" in2="offset" operator="over" result="composite2"/></filter><filter id="filter3954" color-interpolation-filters="sRGB"><feFlood id="feFlood3956" flood-color="#000" flood-opacity=".5" result="flood"/><feComposite id="feComposite3958" in="flood" in2="SourceGraphic" operator="in" result="composite1"/><feGaussianBlur id="feGaussianBlur3960" result="blur" stdDeviation="2"/><feOffset id="feOffset3962" dx="10" dy="-10" result="offset"/><feComposite id="feComposite3964" in="SourceGraphic" in2="offset" operator="over" result="composite2"/></filter><filter id="filter3813" color-interpolation-filters="sRGB"><feGaussianBlur id="feGaussianBlur3815" result="result8" stdDeviation="4"/><feOffset id="feOffset3817" dx="4" dy="4" result="result11"/><feComposite id="feComposite3819" in="SourceGraphic" in2="result11" operator="in" result="result6"/><feFlood id="feFlood3821" flood-color="#000" flood-opacity="1" in="result6" result="result10"/><feBlend id="feBlend3823" in="result6" in2="result10" mode="normal"/><feComposite id="feComposite3825" in2="SourceGraphic" operator="in" result="result2"/></filter><filter id="filter3827" color-interpolation-filters="sRGB"><feGaussianBlur id="feGaussianBlur3829" result="result8" stdDeviation="4"/><feOffset id="feOffset3831" dx="4" dy="4" result="result11"/><feComposite id="feComposite3833" in="SourceGraphic" in2="result11" operator="in" result="result6"/><feFlood id="feFlood3835" flood-color="#000" flood-opacity="1" in="result6" result="result10"/><feBlend id="feBlend3837" in="result6" in2="result10" mode="normal"/><feComposite id="feComposite3839" in2="SourceGraphic" operator="in" result="result2"/></filter></defs><metadata id="metadata7"/><g id="layer1" transform="translate(0,-796.36218)"><rect style="fill:#ffa53c;fill-opacity:1;stroke:none;filter:url(#filter3767)" id="rect2985" width="227.935" height="227.935" x="14.033" y="810.395" ry="18.293"/><path style="fill:none;stroke:#000;stroke-width:1px;stroke-linecap:butt;stroke-linejoin:miter;stroke-opacity:1" id="path3948-7" d="m 405.72186,995.62732 c 0,0 10.21882,-7.07106 14.76451,-20.96066 3.03046,-10.35406 0.38777,-29.7995 0.38777,-29.7995 0,0 -4.73826,1.82491 -7.26364,4.85537 -4.04061,4.54568 -6.12088,11.05452 -6.12088,11.05452 0,0 -11.44715,-16.26704 -15.45712,-37.30167 -2.6733,-15.32189 -0.86594,-37.0544 -0.86594,-37.0544 -10.39407,10.80839 -22.31344,25.96946 -28.47003,41.50492 -6.21706,15.68804 -7.94493,33.33249 -2.46218,47.14864 4.29314,10.5506 17.70832,21.56293 17.70832,21.56293 -25.70114,-5.018 -39.8143,-17.11615 -39.52594,-45.39034 1.96189,-38.12729 32.44558,-59.04477 58.09647,-83.73061 l 7.44089,-7.75471 c 0,0 -1.76776,16.41498 -1.26269,33.08249 0,0 1e-5,11.61674 3.03046,18.94035 1.74143,4.17879 3.63628,8.28321 8.33375,9.09138 2.39911,0.12627 5.80839,-0.82074 8.83885,-7.07107 2.08343,-3.97747 5.55583,-17.17259 5.55583,-17.17259 0,0 4.29315,12.37437 8.5863,24.74874 3.53552,9.84898 5.05075,27.02158 5.05075,27.02158 0,0 0.50509,12.87944 -1.76776,20.45558 -2.52537,7.07107 -6.31345,13.13199 -13.88959,19.06663 -10.35406,6.9448 -20.70813,7.70242 -20.70813,7.70242 z"/><g id="g4017" transform="translate(3.0304575,0)" style="filter:url(#filter3813)"><path id="path3948-7-4" d="m 145.46674,1015.3783 c 0,0 13.96435,-9.6629 20.1762,-28.64355 4.14123,-14.14923 0.5299,-40.72204 0.5299,-40.72204 0,0 -6.475,2.4938 -9.92602,6.63503 -5.52161,6.21183 -8.36438,15.10641 -8.36438,15.10641 0,0 -15.64292,-22.2295 -21.12268,-50.97404 -3.65315,-20.93788 -1.18334,-50.63608 -1.18334,-50.63608 -14.20385,14.77003 -30.492074,35.48814 -38.905264,56.71788 -8.495821,21.43823 -10.857028,45.54998 -3.364651,64.43022 5.866721,14.41777 24.199025,29.46657 24.199025,29.46657 -35.121483,-6.8573 -54.407594,-23.3899 -54.013542,-62.02754 2.68099,-52.10223 44.337985,-80.68668 79.390792,-114.42072 l 10.16824,-10.59707 c 0,0 -2.41571,22.43162 -1.72552,45.20834 0,0 2e-5,15.87467 4.14124,25.88262 2.37971,5.71047 4.9691,11.31929 11.38834,12.42369 3.27847,0.17255 7.93736,-1.12157 12.07859,-9.66286 2.84707,-5.43535 7.59223,-23.46693 7.59223,-23.46693 0,0 5.86674,16.91001 11.73347,33.82 4.83141,13.45896 6.90202,36.92591 6.90202,36.92591 0,0 0.69023,17.6002 -2.41571,27.95324 -3.45099,9.66286 -8.62754,17.94539 -18.98059,26.05522 -14.14917,9.4904 -28.29835,10.5257 -28.29835,10.5257 z" style="fill:#fff;fill-opacity:1;stroke:none"/><path id="path4015" d="m 117.50001,1017.3622 0,-40.02232 15.35714,14.74502 1.07143,25.2773 z" style="fill:#fff;fill-opacity:1;stroke:none"/></g></g></svg>