<svg xmlns="http://www.w3.org/2000/svg" xmlns:svg="http://www.w3.org/2000/svg" id="svg2" width="64" height="64" version="1.1"><metadata id="metadata7"/><g id="layer1" transform="translate(0,-988.36218)"><g id="g3769" transform="matrix(1.1558336,0.74476499,-0.74476628,1.1558327,834.75897,-180.27213)"><path id="path2995" d="m 25,54 0,-15 4,0 0,15 z" transform="translate(0,988.36218)" style="fill:none;stroke:#000;stroke-width:2;stroke-linecap:butt;stroke-linejoin:round;stroke-miterlimit:4;stroke-opacity:1;stroke-dasharray:none"/><path id="path2997" d="m 27,39 0,-5" transform="translate(0,988.36218)" style="fill:none;stroke:#000;stroke-width:2;stroke-linecap:butt;stroke-linejoin:round;stroke-miterlimit:4;stroke-opacity:1;stroke-dasharray:none"/><path id="path2999" d="m 36,27 c 0,4.970563 -4.029437,9 -9,9 -4.970563,0 -9,-4.029437 -9,-9 0,-4.970563 4.029437,-9 9,-9 4.970563,0 9,4.029437 9,9 z" transform="translate(0,986.36218)" style="fill:none;stroke:#000;stroke-width:2;stroke-miterlimit:4;stroke-opacity:1;stroke-dasharray:none;stroke-dashoffset:0"/></g><g id="g3786" transform="matrix(0.7173913,0,0,0.7173913,16.304348,291.10235)"><path id="path3778" d="m 133.93506,1026.277 20,-17.5 20,17.5" style="fill:none;stroke:#000;stroke-width:6;stroke-linecap:butt;stroke-linejoin:round;stroke-miterlimit:4;stroke-opacity:1;stroke-dasharray:none"/><rect id="rect3780" width="9.75" height="18.06" x="149.06" y="1033.092" style="fill:#000;fill-opacity:1;stroke:#000;stroke-width:3.25036097;stroke-linejoin:round;stroke-miterlimit:4;stroke-opacity:1;stroke-dasharray:none;stroke-dashoffset:0"/><path id="path3782" d="m 138.93506,1021.277 0,30 30,0 0,-30" style="fill:none;stroke:#000;stroke-width:4;stroke-linecap:butt;stroke-linejoin:miter;stroke-miterlimit:4;stroke-opacity:1;stroke-dasharray:none"/><path id="path3784" d="m 163.93506,1016.277 0,-10" style="fill:none;stroke:#000;stroke-width:6;stroke-linecap:butt;stroke-linejoin:miter;stroke-miterlimit:4;stroke-opacity:1;stroke-dasharray:none"/><g id="g3776" transform="matrix(-1,0,0,1,44.454545,0)"><path style="fill:#000;fill-opacity:1;stroke:#000;stroke-width:5.5757575;stroke-linecap:round;stroke-linejoin:round;stroke-miterlimit:4;stroke-opacity:1;stroke-dasharray:none" id="path4325" d="m 36.515151,1043.0289 -27.8787878,0 6.9696968,-34.8485 -13.9393938,0 20.9090908,-20.90911 20.909091,20.90911 -13.939394,0 6.969697,34.8485"/><path style="fill:#000;fill-opacity:1;stroke:#000;stroke-width:5.5757575;stroke-linecap:butt;stroke-linejoin:round;stroke-miterlimit:4;stroke-opacity:1;stroke-dasharray:none" id="path4327" d="m 36.515151,1073.6956 6.969697,33.4545 13.939394,0 -34.848485,22.303 -34.848485,-22.303 13.9393942,0 6.969697,-33.4545 z"/></g></g></g></svg>