<svg xmlns="http://www.w3.org/2000/svg" xmlns:svg="http://www.w3.org/2000/svg" id="svg2" width="256" height="256" version="1.1"><defs id="defs4"><filter style="color-interpolation-filters:sRGB" id="filter3767"><feFlood id="feFlood3769" flood-color="#000" flood-opacity=".5" result="flood"/><feComposite id="feComposite3771" in="flood" in2="SourceGraphic" operator="in" result="composite1"/><feGaussianBlur id="feGaussianBlur3773" in="composite" result="blur" stdDeviation="2"/><feOffset id="feOffset3775" dx="10" dy="10" result="offset"/><feComposite id="feComposite3777" in="SourceGraphic" in2="offset" operator="over" result="composite2"/></filter><filter id="filter3966" color-interpolation-filters="sRGB"><feFlood id="feFlood3968" flood-color="#000" flood-opacity=".5" result="flood"/><feComposite id="feComposite3970" in="flood" in2="SourceGraphic" operator="in" result="composite1"/><feGaussianBlur id="feGaussianBlur3972" result="blur" stdDeviation="2"/><feOffset id="feOffset3974" dx="10" dy="-10" result="offset"/><feComposite id="feComposite3976" in="SourceGraphic" in2="offset" operator="over" result="composite2"/></filter><filter id="filter3954" color-interpolation-filters="sRGB"><feFlood id="feFlood3956" flood-color="#000" flood-opacity=".5" result="flood"/><feComposite id="feComposite3958" in="flood" in2="SourceGraphic" operator="in" result="composite1"/><feGaussianBlur id="feGaussianBlur3960" result="blur" stdDeviation="2"/><feOffset id="feOffset3962" dx="10" dy="-10" result="offset"/><feComposite id="feComposite3964" in="SourceGraphic" in2="offset" operator="over" result="composite2"/></filter><filter id="filter3813" color-interpolation-filters="sRGB"><feGaussianBlur id="feGaussianBlur3815" result="result8" stdDeviation="4"/><feOffset id="feOffset3817" dx="4" dy="4" result="result11"/><feComposite id="feComposite3819" in="SourceGraphic" in2="result11" operator="in" result="result6"/><feFlood id="feFlood3821" flood-color="#000" flood-opacity="1" in="result6" result="result10"/><feBlend id="feBlend3823" in="result6" in2="result10" mode="normal"/><feComposite id="feComposite3825" in2="SourceGraphic" operator="in" result="result2"/></filter><filter id="filter3827" color-interpolation-filters="sRGB"><feGaussianBlur id="feGaussianBlur3829" result="result8" stdDeviation="4"/><feOffset id="feOffset3831" dx="4" dy="3" result="result11"/><feComposite id="feComposite3833" in="SourceGraphic" in2="result11" operator="in" result="result6"/><feFlood id="feFlood3835" flood-color="#000" flood-opacity="1" in="result6" result="result10"/><feBlend id="feBlend3837" in="result6" in2="result10" mode="normal"/><feComposite id="feComposite3839" in2="SourceGraphic" operator="in" result="result2"/></filter><filter id="filter3827-9" color-interpolation-filters="sRGB"><feGaussianBlur id="feGaussianBlur3829-4" result="result8" stdDeviation="4"/><feOffset id="feOffset3831-8" dx="4" dy="4" result="result11"/><feComposite id="feComposite3833-8" in="SourceGraphic" in2="result11" operator="in" result="result6"/><feFlood id="feFlood3835-2" flood-color="#000" flood-opacity="1" in="result6" result="result10"/><feBlend id="feBlend3837-4" in="result6" in2="result10" mode="normal"/><feComposite id="feComposite3839-5" in2="SourceGraphic" operator="in" result="result2"/></filter><filter id="filter3927" color-interpolation-filters="sRGB"><feGaussianBlur id="feGaussianBlur3929" result="result8" stdDeviation="4"/><feOffset id="feOffset3931" dx="4" dy="4" result="result11"/><feComposite id="feComposite3933" in="SourceGraphic" in2="result11" operator="in" result="result6"/><feFlood id="feFlood3935" flood-color="#000" flood-opacity="1" in="result6" result="result10"/><feBlend id="feBlend3937" in="result6" in2="result10" mode="normal"/><feComposite id="feComposite3939" in2="SourceGraphic" operator="in" result="result2"/></filter><filter id="filter3767-5" color-interpolation-filters="sRGB"><feFlood id="feFlood3769-1" flood-color="#000" flood-opacity=".5" result="flood"/><feComposite id="feComposite3771-7" in="flood" in2="SourceGraphic" operator="in" result="composite1"/><feGaussianBlur id="feGaussianBlur3773-1" result="blur" stdDeviation="2"/><feOffset id="feOffset3775-1" dx="10" dy="10" result="offset"/><feComposite id="feComposite3777-5" in="SourceGraphic" in2="offset" operator="over" result="composite2"/></filter></defs><metadata id="metadata7"/><g id="layer1" transform="translate(0,-796.36218)"><rect style="fill:#ffa53c;fill-opacity:1;stroke:none;stroke-width:4.0650000000000004;stroke-linecap:round;stroke-linejoin:miter;stroke-miterlimit:4;stroke-opacity:1;stroke-dasharray:none;stroke-dashoffset:0;filter:url(#filter3767)" id="rect2985" width="227.935" height="227.935" x="14.033" y="810.395" ry="18.293"/><path style="fill:#fff;fill-opacity:1;stroke:none;filter:url(#filter3827)" id="path3025" d="m 85.728707,1014.0793 c -6.158532,-0.9514 -13.659896,-4.05 -19.567,-9.6351 -4.867993,-4.60269 -12.523639,-12.00946 -16.699248,-20.33961 -5.028724,-10.03207 -7.574614,-14.1089 -8.885262,-27.73087 -1.062489,-11.04278 0.137089,-19.01154 5.851375,-30.44011 5.714286,-11.42857 19.600477,-24.53937 26.56566,-33.71212 5.429293,-7.15007 12.009373,-21.00289 9.866517,-33.86003 -1.374458,-8.24675 -7.853539,-28.26842 -10.710681,-30.41128 -2.857143,-2.14286 15.186197,4.86164 28.326102,7.41705 9.41811,1.8316 16.15432,3.56555 30.50091,6.64826 8.62048,1.85232 28.2231,8.01136 37.28774,12.33805 9.0258,4.30816 18.34071,11.64133 25.15872,19.87011 8.69084,10.48913 15.76013,24.11684 18.92556,36.21872 4.17063,15.94488 5.47976,28.88245 3.78368,40.64636 -1.84602,12.80386 -7.01966,25.63895 -10.71428,32.84994 -3.92361,7.65792 -11.35283,17.49633 -19.56713,25.35353 -7.67341,7.3398 -25.36954,6.2625 -29.00431,-4.2136 -4.11536,-11.86116 8.27103,-22.56066 13.56782,-32.71282 8.57143,-16.42857 9.62713,-24.30926 10.2886,-34.43001 0.81367,-12.44955 -1.50934,-26.59578 -10.99568,-39.8557 -4.16058,-5.81562 -16.66942,-16.76785 -21.87776,-19.59173 -14.61176,-7.92228 -26.2418,-14.0836 -34.06384,-18.96168 -13.17361,-8.2155 -10.90681,-8.70956 -11.04615,-7.43866 -0.59894,5.46286 -0.19,25.06714 -6.291473,38.8456 -4.250388,9.59831 -13.373293,23.46036 -17.279951,34.85932 -4.424284,12.90931 -5.184062,26.16857 2.142856,37.85714 7.735609,12.34055 22.024908,24.50718 19.437218,39.00074 -1.888365,10.5766 -10.155107,11.4285 -14.999993,11.4285 z"/><path style="fill:#fff;fill-opacity:1;stroke:none;filter:url(#filter3827)" id="path3795" d="m 121.09256,103.18394 c 1.61217,2.61977 1.81369,11.31606 1.81369,11.31606 -3.96485,5.51507 -6.1162,1.87069 -8.8125,3.46875 L 109.125,113 99.78125,122.34375 104.5,127.0625 c -1.92566,2.88902 -3.33987,6.11028 -4.15625,9.59375 l -6.90625,0 0,13.21875 6.8125,0 c 0.74159,3.34595 2.04442,6.49798 3.8125,9.3125 l -4.28125,4.28125 9.34375,9.34375 4.1875,-4.1875 1.15625,2.125 c 2.41825,4.43345 4.01841,11.70438 2.40625,17.75 -1.61217,6.04562 -2.60778,10.07179 -2.40625,17.125 0,0 0.96549,5.59101 2.21875,7.84375 5.26546,9.46468 21.4205,10.58501 25.11125,-0.95752 2.14528,-6.70922 -0.58868,-13.34065 -3.40691,-19.15406 -4.44861,-10.54906 1.27109,-17.74491 2.32699,-21.54711 0.9556,-2.53904 1.98717,-3.9343 2.69377,-4.83749 l 6.11865,5.12118 9.34375,-9.34375 -4.25,-4.25 c 1.56113,-2.63822 2.7544,-5.54293 3.4375,-8.625 l 5.75,0 0,-13.21875 -5.84375,0 c -0.75496,-3.22138 -2.03863,-6.21671 -3.75,-8.9375 l 4.65625,-4.65625 -9.34375,-9.34375 -4.65625,4.65625 c -2.66517,-1.67468 -5.2001,-2.92832 -8.34696,-3.6875 0,0 0.66578,-4.15189 -2.35703,-9.39142 -7.45626,-8.665392 -17.03192,-24.869653 -17.03192,-24.869653 0,0 2.13979,14.293646 3.95347,22.757513 z" transform="translate(0,796.36218)"/></g></svg>