<svg xmlns="http://www.w3.org/2000/svg" xmlns:svg="http://www.w3.org/2000/svg" id="svg2" width="64" height="64" version="1.1"><metadata id="metadata7"/><g id="layer1" transform="translate(0,-988.36218)"><g id="g3769" transform="matrix(1.1558336,0.74476499,-0.74476628,1.1558327,834.75897,-180.27213)"><path id="path2995" d="m 25,54 0,-15 4,0 0,15 z" transform="translate(0,988.36218)" style="fill:none;stroke:#000;stroke-width:2;stroke-linecap:butt;stroke-linejoin:round;stroke-miterlimit:4;stroke-opacity:1;stroke-dasharray:none"/><path id="path2997" d="m 27,39 0,-5" transform="translate(0,988.36218)" style="fill:none;stroke:#000;stroke-width:2;stroke-linecap:butt;stroke-linejoin:round;stroke-miterlimit:4;stroke-opacity:1;stroke-dasharray:none"/><path id="path2999" d="m 36,27 c 0,4.970563 -4.029437,9 -9,9 -4.970563,0 -9,-4.029437 -9,-9 0,-4.970563 4.029437,-9 9,-9 4.970563,0 9,4.029437 9,9 z" transform="translate(0,986.36218)" style="fill:none;stroke:#000;stroke-width:2;stroke-miterlimit:4;stroke-opacity:1;stroke-dasharray:none;stroke-dashoffset:0"/></g><g id="g3786" transform="matrix(0.7173913,0,0,0.7173913,16.304348,291.10235)"><path id="path3778" d="m 133.93506,1026.277 20,-17.5 20,17.5" style="fill:none;stroke:#000;stroke-width:6;stroke-linecap:butt;stroke-linejoin:round;stroke-miterlimit:4;stroke-opacity:1;stroke-dasharray:none"/><rect id="rect3780" width="9.75" height="18.06" x="149.06" y="1033.092" style="fill:#000;fill-opacity:1;stroke:#000;stroke-width:3.25036097;stroke-linejoin:round;stroke-miterlimit:4;stroke-opacity:1;stroke-dasharray:none;stroke-dashoffset:0"/><path id="path3782" d="m 138.93506,1021.277 0,30 30,0 0,-30" style="fill:none;stroke:#000;stroke-width:4;stroke-linecap:butt;stroke-linejoin:miter;stroke-miterlimit:4;stroke-opacity:1;stroke-dasharray:none"/><path id="path3784" d="m 163.93506,1016.277 0,-10" style="fill:none;stroke:#000;stroke-width:6;stroke-linecap:butt;stroke-linejoin:miter;stroke-miterlimit:4;stroke-opacity:1;stroke-dasharray:none"/><g id="g3776" transform="matrix(-1,0,0,1,44.454545,0)"><path id="path3000" d="M 70,31.5 C 70,43.926407 59.926407,54 47.5,54 35.073593,54 25,43.926407 25,31.5 25,19.073593 35.073593,9 47.5,9 59.926407,9 70,19.073593 70,31.5 z" transform="matrix(1.3939394,0,0,1.3939394,-40.151516,968.4531)" style="fill:none;stroke:#000;stroke-width:4.20000001;stroke-linejoin:round;stroke-miterlimit:4;stroke-opacity:1;stroke-dasharray:none;stroke-dashoffset:0"/><path id="path3770" d="m 8.4999998,56.000001 9.0000002,-10" transform="matrix(1.3939394,0,0,1.3939394,-22.727273,971.93795)" style="fill:none;stroke:#000;stroke-width:8;stroke-linecap:round;stroke-linejoin:round;stroke-miterlimit:4;stroke-opacity:1;stroke-dasharray:none;marker-start:none;marker-mid:none;marker-end:none"/><path id="path3774" d="m 28,39.000001 2.5,0 0,-7 9,0 0,7 L 42,39 l 0,-13 3,0 -10,-9 -10,9.000001 3,0 z" transform="matrix(1.3939394,0,0,1.3939394,-22.727273,971.93795)" style="fill:#000;fill-opacity:1;stroke:#000;stroke-width:4;stroke-linecap:butt;stroke-linejoin:round;stroke-miterlimit:4;stroke-opacity:1;stroke-dasharray:none"/></g></g></g></svg>