<svg xmlns="http://www.w3.org/2000/svg" xmlns:svg="http://www.w3.org/2000/svg" id="svg2" width="64" height="64" version="1.1"><metadata id="metadata7"/><g id="layer1" transform="translate(0,-988.36218)"><g id="g3786" transform="matrix(0.7173913,0,0,0.7173913,16.304348,291.10235)"><g id="g3776" transform="matrix(-1,0,0,1,44.454545,0)"><path style="fill:#000;fill-opacity:1;stroke:none" id="path3442-1" d="m 161.10533,-8.0098791 a 6.5300884,6.5300884 0 1 1 -13.06018,0 6.5300884,6.5300884 0 1 1 13.06018,0 z" transform="matrix(-1.3229915,0,0,1.3229915,210.62793,997.42189)"/><path style="fill:#000;fill-opacity:1;stroke:none" id="path4212-7" d="m 17.971964,992.06197 -12.2349904,8.82423 0.0152,11.75 -11.17694,0.1247 c 0,0 -2.22307,0.091 -2.31125,2.8679 -0.0881,2.8656 2.22177,3.2193 2.22177,3.2193 l 15.4435899,0.1474 c 1.3092905,0 2.1937105,-0.9328 2.1002005,-2.3044 l -0.0112,-7.0163 6.57751,10.443 -10.9729404,7.3568 -0.24931,23.6604 c 0,0 0.56112,3.242 4.6136204,3.3979 4.17719,-0.1247 4.5201,-3.6473 4.5201,-3.6473 l -0.0312,-18.7974 9.227241,-5.6111 -0.09339,12.5627 c -0.03122,1.8392 0.935194,2.7433 2.649711,2.7121 l 19.233814,-0.062 c 0,0 3.647242,0.2183 3.616074,-4.3642 4.1e-5,-4.5824 -3.803113,-4.4577 -3.803113,-4.4577 l -12.749807,-0.1559 0.24939,-13.4668 -12.282206,-19.38967 10.723549,10e-6 4.211506,6.46286 c 0,0 2.381945,2.3167 5.171594,0.6135 2.231669,-1.8295 1.285021,-4.4713 1.285021,-4.4713 l -6.740311,-10.33599 z"/></g></g></g></svg>