<svg xmlns="http://www.w3.org/2000/svg" xmlns:svg="http://www.w3.org/2000/svg" id="svg2" width="64" height="64" version="1.1"><metadata id="metadata7"/><g id="layer1" transform="translate(0,-988.36218)"><g id="g3786" transform="matrix(0.7173913,0,0,0.7173913,16.304348,291.10235)"><g id="g3776" transform="matrix(-1,0,0,1,44.454545,0)"><path id="path3000" d="m 70,31.5 a 22.5,22.5 0 1 1 -45,0 22.5,22.5 0 1 1 45,0 z" transform="matrix(1.3939394,0,0,1.3939394,-40.848485,968.4531)" style="fill:none;stroke:#000;stroke-width:4.19999981;stroke-linejoin:round;stroke-miterlimit:4;stroke-opacity:1;stroke-dasharray:none;stroke-dashoffset:0"/><path id="path3770" d="m 8.4999998,56.000001 9.0000002,-9" transform="matrix(1.3939394,0,0,1.3939394,-22.727273,971.93795)" style="fill:none;stroke:#000;stroke-width:8;stroke-linecap:round;stroke-linejoin:round;stroke-miterlimit:4;stroke-opacity:1;stroke-dasharray:none;marker-start:none;marker-mid:none;marker-end:none"/><path style="fill:none;stroke:#000;stroke-width:4.00000001;stroke-linecap:round;stroke-linejoin:miter;stroke-opacity:1;stroke-miterlimit:4;stroke-dasharray:none" id="path3004" d="m 20,39 20,0" transform="matrix(-1.3939394,0,0,1.3939394,67.181818,971.93795)"/><path style="fill:#000;stroke:#000;stroke-width:2;stroke-linecap:butt;stroke-linejoin:round;stroke-opacity:1;stroke-miterlimit:4;stroke-dasharray:none;fill-opacity:1" id="path3774" d="m 30,37 -6,-6 3,0 0,-15 6,1e-6 0,15 3,0 L 30,37" transform="matrix(-1.3939394,0,0,1.3939394,67.181818,971.93795)"/></g></g></g></svg>